<svg width="212" height="128" viewBox="0 0 212 128" fill="none" xmlns="http://www.w3.org/2000/svg">
<mask id="mask0_234_3404" style="mask-type:alpha" maskUnits="userSpaceOnUse" x="0" y="0" width="212" height="128">
<rect width="212" height="128" fill="#D9D9D9"/>
</mask>
<g mask="url(#mask0_234_3404)">
</g>
<g clip-path="url(#clip0_234_3404)">
<path d="M110.846 66.5461H83.4166L81.8643 72.6939C81.6597 73.5058 81.5168 73.8371 80.0456 73.8371H76.8661C75.3917 73.8371 75.4177 73.5058 75.6223 72.6939L77.1714 66.5461H74.7065C73.8036 66.5461 73.2645 66.9488 73.0534 67.7802L71.7674 72.8855C71.212 75.0809 72.2123 75.9805 75.2099 75.9935H80.5392C83.1211 75.9935 84.9722 75.4641 85.625 72.8855L86.6578 68.7838H91.487C91.3311 69.4041 89.9573 74.7659 89.9573 74.7756C89.9346 74.8698 89.8437 75.318 90.1295 75.659C90.3211 75.8831 90.6296 75.9968 91.0421 75.9968H92.091C92.5067 75.9968 92.8705 75.8831 93.179 75.6557C93.6337 75.318 93.7701 74.8666 93.7928 74.7659C93.7928 74.7594 95.1633 69.4041 95.3192 68.7838H100.295C100.191 69.0403 100.096 69.3261 100.015 69.6476L99.2326 72.7589C98.6285 75.1491 99.7425 75.9968 102.276 75.9968H108.212C111.015 75.9968 112.431 75.37 113.142 72.5478L113.831 69.8263C114.393 67.5951 113.944 66.5461 110.849 66.5461H110.846ZM109.937 70.1543L109.417 72.2133L109.359 72.4471C109.154 73.259 108.751 73.8468 107.582 73.8468H104.137C102.928 73.8468 102.928 73.1843 103.081 72.5835L103.178 72.1938L103.679 70.2095C103.883 69.4008 104.208 68.6928 105.377 68.6928H108.998C110.226 68.6928 110.141 69.3424 109.937 70.151V70.1543Z" fill="white"/>
<path d="M91.4585 52C82.6574 52 78.6141 53.6627 75.9867 55.3223C73.3627 56.9818 70.5632 58.9012 67.2116 59.1025C63.5873 59.3201 58.5827 59.3266 55.0038 60.0086C46.9204 61.548 42.4614 66.0622 41.2923 68.1504C41.1754 68.3355 41.0812 68.5207 41 68.6993H47.7973C49.0963 66.8968 51.2398 64.4806 54.9096 63.5907C59.82 62.3956 65.3507 63.0776 68.0235 62.6522C70.3359 62.2267 72.2487 61.3759 75.3502 59.161C78.6238 56.8227 81.3388 55.1144 87.0449 54.5558C93.6181 53.9096 107.076 54.0135 107.076 54.0135L107.395 52.7534C107.395 52.7534 93.3648 51.9967 91.4617 51.9967L91.4585 52Z" fill="white"/>
<path d="M67.1166 66.5461H58.1304L58.0687 67.0008C57.9648 67.7867 58.5623 68.7026 60.5856 68.7026H65.5318C67.0062 68.7026 66.9802 69.0338 66.7756 69.8457C66.7756 69.8457 66.0027 72.918 65.7623 73.8598H59.9361C59.5139 73.8598 58.8254 73.7559 59.0008 73.0576C59.1826 72.3432 59.9134 72.1905 60.4947 72.1905H63.9924L66.1163 70.0666H60.5109C56.3897 70.0666 55.4121 72.1775 55.1848 73.0869C54.7399 74.8536 55.883 75.9968 58.0979 75.9968H67.6882C68.591 75.9968 69.1334 75.5908 69.3412 74.7594L70.6273 69.6541C71.2768 67.0723 69.692 66.5461 67.1101 66.5461H67.1166Z" fill="white"/>
<path d="M115.64 73.0544C115.383 74.0709 115.429 74.7789 115.776 75.2238C116.182 75.7435 117.079 75.9968 118.514 75.9968H125.12C127.958 75.9968 129.348 75.5031 130.092 72.5608L130.852 69.534C131.147 68.3551 131.203 67.7218 130.823 67.2444C130.375 66.6761 129.91 66.5462 128.41 66.5462H120.469L121.21 63.5713C121.21 63.5713 121.288 63.2563 121.125 63.068C120.992 62.9088 120.716 62.8763 120.511 62.8763H119.342C118.998 62.8763 118.696 62.9673 118.449 63.1524C118.079 63.4284 117.972 63.7954 117.965 63.8376L115.643 73.0577L115.64 73.0544ZM124.422 74.662H120.589C119.868 74.662 119.372 74.4801 119.076 74.1002C118.703 73.6195 118.797 73.0154 118.901 72.603L120.089 67.8777H125.993C126.692 67.8777 127.166 68.0531 127.442 68.4071C127.858 68.9332 127.669 69.6704 127.549 70.1575L126.906 72.7102C126.695 73.5481 126.208 74.662 124.422 74.662Z" fill="white"/>
<path d="M152.73 62.8763C152.386 62.8763 152.084 62.9673 151.837 63.1524C151.464 63.4284 151.363 63.7954 151.353 63.8344L148.466 75.3018C148.466 75.3018 148.388 75.6233 148.548 75.8084C148.681 75.9675 148.957 76 149.161 76H150.327C150.675 76 150.974 75.9091 151.22 75.7272C151.604 75.4447 151.704 75.0517 151.707 75.0355L154.591 63.5908C154.591 63.5908 154.673 63.2596 154.513 63.0712C154.377 62.9121 154.104 62.8796 153.9 62.8796H152.73V62.8763Z" fill="white"/>
<path d="M158.852 62.8763C158.508 62.8763 158.206 62.9673 157.959 63.1524C157.589 63.4284 157.485 63.7954 157.475 63.8376L154.591 75.3018C154.591 75.3018 154.513 75.6233 154.673 75.8084C154.806 75.9675 155.082 76 155.286 76H156.455C156.803 76 157.102 75.9091 157.349 75.7272C157.732 75.4447 157.832 75.0517 157.836 75.0355L160.716 63.5876C160.716 63.5876 160.798 63.2563 160.638 63.068C160.505 62.9088 160.229 62.8763 160.025 62.8763H158.855H158.852Z" fill="white"/>
<path d="M147.448 67.4166C147.01 66.8515 146.123 66.543 144.96 66.543H137.864C135.091 66.543 133.743 66.9814 133.084 69.5925L132.178 73.1974C131.944 74.1229 131.986 74.7757 132.308 75.1882C132.743 75.7468 133.753 75.9968 135.575 75.9968H145.106L145.113 75.9449C145.136 75.7727 145.119 75.5097 144.905 75.2661C144.558 74.8731 143.824 74.6556 142.836 74.6556H137.335C136.484 74.6556 135.847 74.5679 135.519 74.1457C135.188 73.7202 135.321 73.1941 135.438 72.7265L136.136 69.9627C136.296 69.3359 136.666 67.8713 138.543 67.8713H142.911C143.561 67.8713 144.025 68.0434 144.291 68.3811C144.441 68.5727 144.59 68.9072 144.467 69.4074C144.337 69.9173 143.885 70.7681 142.291 70.7681H138.108L136.799 72.0769H142.274C146.487 72.0769 147.461 70.0082 147.688 69.1183C147.864 68.4169 147.782 67.8453 147.448 67.4133V67.4166Z" fill="white"/>
<path d="M168.254 62.8406C168.254 63.7792 167.494 64.5424 166.553 64.5424C165.611 64.5424 164.851 63.7792 164.851 62.8406C164.851 61.9021 165.611 61.1356 166.553 61.1356C167.494 61.1356 168.254 61.8988 168.254 62.8406ZM166.553 59.4598C164.685 59.4598 163.172 60.97 163.172 62.8406C163.172 64.7113 164.685 66.2214 166.553 66.2214C168.42 66.2214 169.933 64.708 169.933 62.8406C169.933 60.9732 168.42 59.4598 166.553 59.4598Z" fill="white"/>
</g>
<defs>
<clipPath id="clip0_234_3404">
<rect width="128.937" height="24" fill="white" transform="translate(41 52)"/>
</clipPath>
</defs>
</svg>
